/* XPM */
static char *image[] = {
"48 48 719 2",
"   c None",
"00 c #3351a4",
"10 c #3352a4",
"20 c #3352a5",
"30 c #3353a5",
"40 c #364da0",
"50 c #354fa2",
"60 c #3450a2",
"70 c #3450a3",
"80 c #354da0",
"90 c #354ea1",
":0 c #354fa1",
";0 c #38499d",
"A0 c #374a9d",
"B0 c #374b9e",
"C0 c #364b9e",
"D0 c #364c9f",
"E0 c #38479b",
"F0 c #38499c",
"G0 c #37499d",
"H0 c #374a9e",
"I0 c #71799c",
"J0 c #272061",
"K0 c #2c3074",
"L0 c #2c2d71",
"M0 c #3b4296",
"N0 c #394599",
"O0 c #38489b",
"P0 c #38489c",
"Q0 c #b2b8d8",
"R0 c #b5b4b7",
"S0 c #261c5f",
"T0 c #2e3e86",
"U0 c #3b499b",
"V0 c #3565af",
"W0 c #39469a",
"X0 c #39479a",
"Y0 c #818abf",
"Z0 c #b6b4b7",
"a0 c #250c4d",
"b0 c #2c408b",
"c0 c #2c357d",
"d0 c #375eaa",
"e0 c #317dc0",
"f0 c #3277bc",
"g0 c #3b4397",
"h0 c #3a4599",
"i0 c #44519f",
"j0 c #1f0643",
"k0 c #200644",
"l0 c #260e4f",
"m0 c #2b428e",
"n0 c #2d4590",
"o0 c #3d4195",
"p0 c #327bbe",
"q0 c #327bbf",
"r0 c #3b4196",
"s0 c #3a4a9b",
"t0 c #3a4b9c",
"u0 c #3a4498",
"v0 c #9a9fc9",
"w0 c #210745",
"x0 c #220746",
"y0 c #230847",
"z0 c #280f52",
"01 c #2b4491",
"11 c #2e4b96",
"21 c #3e4195",
"31 c #3278bc",
"41 c #3856a4",
"51 c #3a4699",
"61 c #464e9d",
"71 c #efeff5",
"81 c #b6b4b8",
"91 c #9b9a9c",
":1 c #9a9a9a",
";1 c #776f81",
"A1 c #321a51",
"B1 c #240848",
"C1 c #250949",
"D1 c #26094a",
"E1 c #270a4b",
"F1 c #2a145a",
"G1 c #2b4e9d",
"H1 c #2e4d99",
"I1 c #3569b2",
"J1 c #3474b9",
"K1 c #3b4c9d",
"L1 c #394f9f",
"M1 c #3c4195",
"N1 c #8386bc",
"O1 c #b6b5b8",
"P1 c #98969a",
"Q1 c #89848e",
"R1 c #59486d",
"S1 c #351c55",
"T1 c #280a4c",
"U1 c #290b4d",
"V1 c #2a0b4f",
"W1 c #2b0c50",
"X1 c #2a2771",
"Y1 c #3959a6",
"Z1 c #3473b9",
"a1 c #3377bb",
"b1 c #3378bc",
"c1 c #3d3f93",
"d1 c #3c4094",
"e1 c #adb7d7",
"f1 c #89b3d9",
"g1 c #70a3d2",
"h1 c #89848f",
"i1 c #5b4970",
"j1 c #391e59",
"k1 c #2c0c51",
"l1 c #2d0d52",
"m1 c #2a4a9a",
"n1 c #3372b8",
"o1 c #3d4497",
"p1 c #3c4597",
"q1 c #3662ad",
"r1 c #3279bd",
"s1 c #327abe",
"t1 c #d5e3f0",
"u1 c #b3b1b6",
"v1 c #979599",
"w1 c #8a8590",
"x1 c #5d4a72",
"y1 c #34347b",
"z1 c #385ea9",
"02 c #3373b9",
"12 c #3a51a0",
"22 c #3473b8",
"32 c #3376bb",
"42 c #3377bc",
"52 c #96b9db",
"62 c #b4b1b6",
"72 c #97959a",
"82 c #2c57a7",
"92 c #2b50a0",
":2 c #3669b1",
";2 c #3470b7",
"A2 c #3668b0",
"B2 c #3374b9",
"C2 c #3374ba",
"D2 c #3375ba",
"E2 c #e2eaf3",
"F2 c #7595cb",
"G2 c #3b509f",
"H2 c #346fb5",
"I2 c #3472b8",
"J2 c #3373b8",
"K2 c #719dcd",
"L2 c #aabfe0",
"M2 c #2c509f",
"N2 c #3b55a3",
"O2 c #3470b6",
"P2 c #3471b7",
"Q2 c #b0c7e2",
"R2 c #cce4ed",
"S2 c #e4eff4",
"T2 c #e0e7f2",
"U2 c #395aa6",
"V2 c #356bb3",
"W2 c #356cb3",
"X2 c #356db4",
"Y2 c #346db4",
"Z2 c #346eb5",
"a2 c #346fb6",
"b2 c #c0d4e8",
"c2 c #5a97c2",
"d2 c #479cc4",
"e2 c #2d4e9b",
"f2 c #3664ae",
"g2 c #3667af",
"h2 c #3568b1",
"i2 c #3569b1",
"j2 c #356ab2",
"k2 c #356bb2",
"l2 c #3672b5",
"m2 c #356cb4",
"n2 c #3570b5",
"o2 c #4897c1",
"p2 c #3e99c3",
"q2 c #8abfd9",
"r2 c #efefef",
"s2 c #4c78c0",
"t2 c #2856a9",
"u2 c #2c4f9e",
"v2 c #3762ac",
"w2 c #3666af",
"x2 c #3667b0",
"y2 c #3568b0",
"z2 c #3c8abc",
"03 c #387ab7",
"13 c #366eb3",
"23 c #3c91bf",
"33 c #3c97c2",
"43 c #bedae9",
"53 c #d0d0d0",
"63 c #bbbbbb",
"73 c #5884c7",
"83 c #2757ac",
"93 c #2b51a0",
":3 c #3761ac",
";3 c #3662ac",
"A3 c #3664ad",
"B3 c #3665ae",
"C3 c #3b85ba",
"D3 c #3e9bc3",
"E3 c #366eb2",
"F3 c #3982bb",
"G3 c #3992c2",
"H3 c #cadfec",
"I3 c #ababab",
"J3 c #cfcfcf",
"K3 c #ececec",
"L3 c #b0b0b0",
"M3 c #5885c8",
"N3 c #3760aa",
"O3 c #3760ab",
"P3 c #3866ad",
"Q3 c #3663ad",
"R3 c #3872b3",
"S3 c #3d98c2",
"T3 c #3c96c2",
"U3 c #3771b4",
"V3 c #3991c2",
"W3 c #388fc1",
"X3 c #378cc1",
"Y3 c #d6d6d6",
"Z3 c #a5a5a5",
"a3 c #c4c4c4",
"b3 c #699acc",
"c3 c #79aad7",
"d3 c #5886c9",
"e3 c #2559af",
"f3 c #2a53a4",
"g3 c #385ca8",
"h3 c #375ea9",
"i3 c #375fa9",
"j3 c #375faa",
"k3 c #3b84ba",
"l3 c #3761ab",
"m3 c #3a88bd",
"n3 c #3a93c2",
"o3 c #3889bf",
"p3 c #358ac1",
"q3 c #bebebe",
"r3 c #9f9f9f",
"s3 c #bdbdbd",
"t3 c #dbdbdb",
"u3 c #c3c3c3",
"v3 c #e2e2e2",
"w3 c #e2e5f0",
"x3 c #2177c1",
"y3 c #387ac6",
"z3 c #376dbe",
"04 c #385aa6",
"14 c #385ba7",
"24 c #385ca7",
"34 c #375da8",
"44 c #3865ac",
"54 c #3b94c2",
"64 c #386cb0",
"74 c #3990c2",
"84 c #378ec1",
"94 c #3589c1",
":4 c #b1b1b1",
";4 c #d5d5d5",
"A4 c #f5f5f5",
"B4 c #4275bb",
"C4 c #3b53a1",
"D4 c #3958a4",
"E4 c #385fa9",
"F4 c #397eb8",
"G4 c #388fc2",
"H4 c #3781bb",
"I4 c #368bc1",
"J4 c #3588c1",
"K4 c #3284c0",
"L4 c #2b7ec2",
"M4 c #e6e6e6",
"N4 c #7c98c9",
"O4 c #1f6bc0",
"P4 c #215fba",
"Q4 c #2953a5",
"R4 c #3e4999",
"S4 c #3b53a0",
"T4 c #398abe",
"U4 c #396daf",
"V4 c #3789bf",
"W4 c #368ac1",
"X4 c #3488c1",
"Y4 c #3386c1",
"Z4 c #3181c0",
"a4 c #1aa3d3",
"b4 c #cdeaf2",
"c4 c #c9c9c9",
"d4 c #dcdcdc",
"e4 c #2069be",
"f4 c #2559b0",
"g4 c #414092",
"h4 c #3b5aa3",
"i4 c #368cc1",
"j4 c #3680bb",
"k4 c #3385c1",
"l4 c #3283c0",
"m4 c #2482c6",
"n4 c #17abd8",
"o4 c #b2dfee",
"p4 c #bfd1e9",
"q4 c #82bfd8",
"r4 c #bed2e3",
"s4 c #2463b9",
"t4 c #225eb9",
"u4 c #2a52a3",
"v4 c #433a8d",
"w4 c #3c59a2",
"x4 c #3487c1",
"y4 c #3385c0",
"z4 c #3080c0",
"05 c #2f7ec0",
"15 c #2d79bf",
"25 c #2b77bf",
"35 c #2a75bf",
"45 c #208fcc",
"55 c #1c98d1",
"65 c #7bc7e5",
"75 c #9cb7dd",
"85 c #67afd8",
"95 c #7fb2cd",
":5 c #97a6d0",
";5 c #2263bb",
"A5 c #3a60a7",
"B5 c #3182c0",
"C5 c #307fc0",
"D5 c #2f7dc0",
"E5 c #2e7bc0",
"F5 c #2c79bf",
"G5 c #2a74bf",
"H5 c #2972bf",
"I5 c #2772c0",
"J5 c #1aa3d6",
"K5 c #2279c4",
"L5 c #1c9ed5",
"M5 c #1d9cd4",
"N5 c #46abdb",
"O5 c #aabadd",
"P5 c #3b75c3",
"Q5 c #54a9dc",
"R5 c #96cfd9",
"S5 c #88b9d3",
"T5 c #cacaca",
"U5 c #fbfbfb",
"V5 c #6c85c0",
"W5 c #2757ab",
"X5 c #3e4d9b",
"Y5 c #2e7cc0",
"Z5 c #2d7abf",
"a5 c #2c78bf",
"b5 c #2b76bf",
"c5 c #2a73bf",
"d5 c #276fbe",
"e5 c #2570bf",
"f5 c #227ec7",
"g5 c #1d9bd4",
"h5 c #1f90cf",
"i5 c #1f96d3",
"j5 c #2191d2",
"k5 c #878fc0",
"l5 c #c0b7d3",
"m5 c #cbc5dc",
"n5 c #ececf1",
"o5 c #c5cde4",
"p5 c #446ebd",
"q5 c #296dc2",
"r5 c #317dca",
"s5 c #7dc2db",
"t5 c #91c6d4",
"u5 c #b0dcd6",
"v5 c #bbd6e7",
"w5 c #b7b7b7",
"x5 c #e9e9e9",
"y5 c #eff0f5",
"z5 c #2d5aad",
"06 c #2855a9",
"16 c #413f91",
"26 c #2c77bf",
"36 c #2b75bf",
"46 c #2973bf",
"56 c #2871bf",
"66 c #266cbe",
"76 c #227cc6",
"86 c #217ec7",
"96 c #2084cb",
":6 c #2094d2",
";6 c #2191d1",
"A6 c #228fd1",
"B6 c #2f6ab7",
"C6 c #432d86",
"D6 c #41318a",
"E6 c #3e348d",
"F6 c #464296",
"G6 c #686aad",
"H6 c #979bc8",
"I6 c #bbbfdb",
"J6 c #ecedf3",
"K6 c #dfe2ed",
"L6 c #6f86c4",
"M6 c #2763bc",
"N6 c #2870c4",
"O6 c #317dcc",
"P6 c #3983ca",
"Q6 c #3578be",
"R6 c #3586cf",
"S6 c #56a0d3",
"T6 c #f2f2f2",
"U6 c #b5b5b5",
"V6 c #8997c6",
"W6 c #2461b8",
"X6 c #225fb9",
"Y6 c #255ab0",
"Z6 c #2954a6",
"a6 c #2e67b5",
"b6 c #2870be",
"c6 c #276ebe",
"d6 c #266bbe",
"e6 c #2367be",
"f6 c #2185cb",
"g6 c #218bcf",
"h6 c #2287cd",
"i6 c #238cd0",
"j6 c #248ad0",
"k6 c #3b439a",
"l6 c #3f348d",
"m6 c #3c3791",
"n6 c #3a3b95",
"o6 c #373f99",
"p6 c #35439d",
"q6 c #3246a1",
"r6 c #2f4aa5",
"s6 c #334fa8",
"t6 c #3857ad",
"u6 c #526eb7",
"v6 c #5070ba",
"w6 c #4268b9",
"x6 c #275ab4",
"y6 c #256ac1",
"z6 c #2b75c8",
"07 c #3789d3",
"17 c #678090",
"27 c #445b8d",
"37 c #3778bb",
"47 c #a1a8c7",
"57 c #2e58ab",
"67 c #235db6",
"77 c #384b9e",
"87 c #256bbe",
"97 c #2469be",
":7 c #2366be",
";7 c #2272c3",
"A7 c #2065be",
"B7 c #2281cb",
"C7 c #2489cf",
"D7 c #2587cf",
"E7 c #2684ce",
"F7 c #2782ce",
"G7 c #2878ca",
"H7 c #2871c4",
"I7 c #3c3b93",
"J7 c #3a3a94",
"K7 c #383e98",
"L7 c #3246a0",
"M7 c #304aa4",
"N7 c #2756b1",
"O7 c #2a71c6",
"P7 c #398ad4",
"Q7 c #7a7557",
"R7 c #292322",
"S7 c #494962",
"T7 c #3977b5",
"U7 c #f8f8f8",
"V7 c #b1b4d3",
"W7 c #3351a3",
"X7 c #2065bc",
"Y7 c #215fb9",
"Z7 c #2953a8",
"a7 c #275fb6",
"b7 c #2164bd",
"c7 c #237ac8",
"d7 c #2374c6",
"e7 c #257bca",
"f7 c #2782cd",
"g7 c #297dcc",
"h7 c #2673c7",
"i7 c #256fc5",
"j7 c #2864ba",
"k7 c #37419b",
"l7 c #35429c",
"m7 c #3345a0",
"n7 c #3049a4",
"o7 c #2d4da8",
"p7 c #255ab5",
"q7 c #2162be",
"r7 c #2468c0",
"s7 c #276ec3",
"t7 c #3482cf",
"u7 c #3b8fd6",
"v7 c #67636d",
"w7 c #5f3b2f",
"x7 c #3c518d",
"y7 c #3584c4",
"z7 c #828bbd",
"08 c #344fa2",
"18 c #2067bd",
"28 c #383f99",
"38 c #2579c9",
"48 c #287fcd",
"58 c #287acb",
"68 c #2570c6",
"78 c #246dc3",
"88 c #236bc3",
"98 c #2365be",
":8 c #2f4da7",
";8 c #3049a3",
"A8 c #2e4da8",
"B8 c #2b51ac",
"C8 c #225db9",
"D8 c #2467c0",
"E8 c #2e78c9",
"F8 c #3b8dd4",
"G8 c #3e92d4",
"H8 c #3067a6",
"I8 c #2d5f9e",
"J8 c #2b75b2",
"K8 c #358dcd",
"L8 c #2f73be",
"M8 c #1f6abf",
"N8 c #2953a6",
"O8 c #3248a1",
"P8 c #2674c8",
"Q8 c #2777c9",
"R8 c #2775c8",
"S8 c #2672c7",
"T8 c #2855b0",
"U8 c #2854b0",
"V8 c #2659b4",
"W8 c #2367c0",
"X8 c #266cc3",
"Y8 c #3886d0",
"Z8 c #3d92d6",
"a8 c #2d88c6",
"b8 c #2582c1",
"c8 c #2486c4",
"d8 c #248bc8",
"e8 c #3e98d8",
"f8 c #439fdb",
"g8 c #2773c5",
"h8 c #225eb8",
"i8 c #245bb2",
"j8 c #2856aa",
"k8 c #2a53ae",
"l8 c #2570c5",
"m8 c #246ec4",
"n8 c #246cc3",
"o8 c #2369c2",
"p8 c #2267c0",
"q8 c #225eba",
"r8 c #2060bc",
"s8 c #2366bf",
"t8 c #327ecc",
"u8 c #3c8ed4",
"v8 c #2d90ce",
"w8 c #2087c7",
"x8 c #248bcb",
"y8 c #2a90cf",
"z8 c #3c97d7",
"09 c #429edb",
"19 c #45a3de",
"29 c #2160bb",
"39 c #225eb7",
"49 c #245bb3",
"59 c #2658ad",
"69 c #275cb6",
"79 c #236bc2",
"89 c #2369c1",
"99 c #2268c1",
":9 c #2266c0",
";9 c #255db7",
"A9 c #2a5db4",
"B9 c #2e77c8",
"C9 c #3b8ad3",
"D9 c #2f90d1",
"E9 c #288acd",
"F9 c #2d8dd0",
"G9 c #3692d4",
"H9 c #429ddb",
"I9 c #45a3dd",
"J9 c #2e75c5",
"K9 c #235db5",
"L9 c #255ab1",
"M9 c #2657ac",
"N9 c #2461bb",
"O9 c #2165bf",
"P9 c #2164bf",
"Q9 c #2163be",
"R9 c #286fc4",
"S9 c #3884cf",
"T9 c #358cd1",
"U9 c #3088cf",
"V9 c #368cd2",
"W9 c #3b91d5",
"X9 c #3e97d7",
"Y9 c #45a2dd",
"Z9 c #3b8cd0",
"a9 c #245ab2",
"b9 c #2659af",
"c9 c #2360bb",
"d9 c #2062be",
"e9 c #2062bd",
"f9 c #256ac2",
"g9 c #367fcb",
"h9 c #3785cf",
"i9 c #388bd2",
"j9 c #3b90d4",
"k9 c #3e96d7",
"l9 c #419cda",
"m9 c #44a1dd",
"n9 c #47a7df",
"o9 c #449edb",
"p9 c #285caf",
"q9 c #2756aa",
"r9 c #2855a7",
"s9 c #2953ae",
"t9 c #2261bc",
"u9 c #2469c1",
"v9 c #2a72c5",
"w9 c #317aca",
"x9 c #3481cd",
"y9 c #3485cf",
"z9 c #378ad1",
"0: c #3a90d4",
"1: c #3d95d7",
"2: c #419bda",
"3: c #44a1dc",
"4: c #47a6df",
"5: c #3574bb",
"6: c #2953a4",
"7: c #2a52a2",
"8: c #2a52ad",
"9: c #2164be",
":: c #2a73c6",
";: c #2d79c9",
"A: c #307ecb",
"B: c #3484ce",
"C: c #3789d1",
"D: c #3a8fd4",
"E: c #3d95d6",
"F: c #409ad9",
"G: c #43a0dc",
"H: c #47a5df",
"I: c #4192cf",
"J: c #2c4f9d",
"K: c #2d4e9c",
"L: c #2d4ea9",
"M: c #2856b1",
"N: c #2757b2",
"O: c #225fbb",
"P: c #2265bf",
"Q: c #276dc3",
"R: c #2a72c6",
"S: c #2d78c8",
"T: c #3383ce",
"U: c #3689d1",
"V: c #3a8ed3",
"W: c #3d94d6",
"X: c #4099d9",
"Y: c #439fdc",
"Z: c #46a5de",
"a: c #459dd7",
"b: c #32549d",
"c: c #2559b5",
"d: c #235db9",
"e: c #245bb7",
"f: c #235db8",
"g: c #2061bd",
"h: c #2366c0",
"i: c #266cc2",
"j: c #2972c5",
"k: c #2c77c8",
"l: c #307dcb",
"m: c #3382cd",
"n: c #3688d0",
"o: c #398ed3",
"p: c #3c93d6",
"q: c #3f99d8",
"r: c #439edb",
"s: c #46a4de",
"t: c #48a6de",
"u: c #255ab6",
"v: c #2760b9",
"w: c #266bc2",
"x: c #2971c5",
"y: c #2c76c8",
"z: c #2f7cca",
"0; c #3282cd",
"1; c #3687d0",
"2; c #398dd3",
"3; c #3c92d5",
"4; c #3f98d8",
"5; c #4188c3",
"6; c #4497d1",
"7; c #3f82be",
"8; c #4075ac",
"9; c #4494ce",
":; c #48a7df",
";; c #48a8e0",
"A; c #4086c1",
"B; c #4394ce",
"                                      B;A;                                                      ",
"                                ;;:;9;8;7;                                                      ",
"                              ;;;;6;5;4;3;2;1;0;z:y:x:w:v:u:                                    ",
"                            t:;;s:r:q:p:o:n:m:l:k:j:i:h:g:f:e:d:c:                              ",
"                        b:a:;;Z:Y:X:W:V:U:T:l:S:R:Q:P:g:O:N:g:g:g:g:M:L:                        ",
"                    K:J:I:;;H:G:F:E:D:C:B:A:;:::Q:9:g:g:g:g:g:g:g:g:g:g:8:                      ",
"                  7:6:5:;;4:3:2:1:0:z9y9x9w9v9u9t9g:g:g:g:g:g:g:g:g:g:g:g:g:s9                  ",
"                r9q9p9o9n9m9l9k9j9i9y9h9g9f9g:g:g:g:g:g:g:g:g:g:g:g:g:g:e9e9d9c9                ",
"              q9b9a9Z9;;Y9l9X9W9V9U9T9S9R9g:g:g:g:g:g:g:g:g:g:g:g:e9e9d9Q99:P9O9N9              ",
"            M9L9K9J9;;I9H94;G9F9E9D9C9B9A9;9g:g:g:g:g:g:g:g:e9d9d9Q99:P9O9:999897969            ",
"          59493929Y:1909z8y8x8w8v8u8t8x:w:s8r8q8q8g:g:e9d9d9Q9P9O9:9p899o879n8m8l8n8k8          ",
"        j8i8h8g:g8s:f8e8d8c8b8a8Z8Y8j:X8W8g:d:V8U8T8f:Q9P9O9:9p899o879n8m8l8S8R8Q8P8g:O8        ",
"      N8L939g:M8L8Y:F:K8J8I8H8G8F8E8Q:D8e9C8c:T8B8A8;8:89899o88878m868S8R8Q858584838g:g:28      ",
"      59K9r81808z7F:1:y7x7w7v7u7t7s7r7q7q8p7M:B8o7n7m7l7k7j7i768h7R8Q858g748f7e7d7c7g:b7a7      ",
"    Z7i8Y7X7W7V7U7k90:T7S7R7Q7P7O7u9Q9q8u:N78:L:M7L7l7K7J7I7H7G758g748F7E7D7C7B7A7;7:7978777    ",
"    5967g:5747U7U7W9i937271707z6y6x6w6v6u6t6s6r6q6p6o6n6m6l6k648F7E7D7j6i6h6g6f6e697d6c6b6a6    ",
"  Z6Y6X6W6V6U6T6U7S6R6Q6P6O6N6M6L6K6U7U7U7U7U7J6I6H6G6F6E6D6C6B6j6i6A6;6:696867666c65646362616  ",
"  064929z5y5x5w5v5u5t5s5r5q5p5o5U7U7U7U7U7U7U7U7U7U7U7U7n5m5l5k5j5:6i5h5g5f5e5d556c5b5a5Z5Y5X5  ",
"  W5K9g:V5U5U5T5S5u5R5Q5P5O5U7U7U7U7U7U7U7U7U7U7U7U7U7U7U7U7U7U7N5M5L5K5J5I5H5G5b5F5E5D5C5B5A5  ",
"7:5939;5:5U5U5U595u58575U7U7U7U7U7U7U7U7U7U7U7U7U7U7U7U7U7U7U7U765J555b645352515E505z4B5y4x4w4v4",
"u4b9t4s4:5U5U5U5r4q4p4U7U7U7U7U7U7U7U7U7U7U7U7U7U7U7U7U7U7U7U7U7o4n4m43626Z5Y505z4l4k4x4j4i4h4g4",
"6:f4Y7e4:5U5U5U5U5d4c4U7U7U7U7U7U7U7U7U7U7U7U7U7U7U7U7U7U7U7U7U7b4a4a5Z5Y5C5Z4l4Y4X4W4V4U4T4S4R4",
"Q4Y6P4O4N4U5U5U5U5U5w5M4U7U7U7U7U7U7U7U7U7U7U7U7U7U7U7U7U7U7U7U7U7L4D5C5B5K4Y4J4I4H4G4F4E4U4D4C4",
"Q4Y6P4O4B4U5U5U5U5U5A4U6T6U7U7U7U7U7U7U7U7U7U7U7U7U7U7U7U7U7T6;4:4z4B5y4x494I4847464544434241404",
"Q4f4z3y3x3w3U5U5U5U5U5v3u3U7U7U7U7U7U7U7U7U7U7U7U7U7U7U7t3s3r3q3d4k4x4p3i4o374n3m3l3k3j3i3h334g3",
"f3e3d3U5c3b3U5U5U5U5U5U5a3t3U7U7U7U7U7U7U7U7U7U7U7M4u3Z3w5Y3A4U5U5W4X3W3V3U3T3S3R3Q3P3l3O3N3j3h3",
"7:59M3U5U5U5U5U5U5U5U5U5U5L3T6U7U7U7U7U7U7U7K3J3I3w5Y3A4U5U5U5U5H3G4G354F3E3D3C3B3B3A3Q3;3:3l3N3",
"938373U5U5U5U5U5U5U5U5U5U5x563U7U7U7U7T6;4:4I353A4U5U5U5U5U5U5U5435433231303z2y2x2w2w2B3A3Q3;3v2",
"u2t2s2U5U5U5U5U5U5U5U5U5U5U553J3K3J3w5I353r2U5U5U5U5U5U5U5U5U5U5q2p2o2n2m2l2k2j2i2h2x2g2w2B3f2Q3",
"e2Z6Y6U5U5U5U5U5U5U5U5U5U5U5U5:4Z3a3r2U5U5U5U5U5U5U5U5U5U5U5U5U5d2c2b2a2Z2Y2X2W2V2j2i2i2y2x2w2U2",
"  u459T2U5U5U5U5U5U5U5U5U5U5U5U5U5U5U5U5U5U5U5U5U5U5U5U5U5U5U5S2R2U5Q2P2O2a2Z2Z2X2W2V2j2j2i2y2N2",
"  M2t2L2U5U5U5U5U5U5U5U5U5U5U5U5U5U5U5U5U5U5U5U5U5U5U5U5U5U5U5U5U5U5K2J2I2P2O2a2H2Z2Y2m2V2k2j2G2",
"  e2Q4F2U5U5U5U5U5U5U5U5U5U5U5U5U5U5U5U5U5U5U5U5U5U5U5U5U5U5U5U5U5E2D2C2B2J2A2P2;2O2H2Z2Y2m2:2  ",
"    92827262x5U5U5U5U5U5U5U5U5U5U5U5U5U5U5U5U5U5U5U5U5U5U5U5U5U5U55242322212v202I2P2P2O2a2Z2z1  ",
"    e2f3y1x1w1v1u1x5U5U5U5U5U5U5U5U5U5U5U5U5U5U5U5U5U5U5U5U5U5U5t1s1r1q1p1o132D2B202n1I2P2O2    ",
"      u2m1l1k1j1i1h1v1u1x5U5U5U5U5U5U5U5U5U5U5U5U5U5U5U5U5U5U5U5g1f1e1d1c1q1b1a1Z1j2B202J2Y1    ",
"        92X1W1V1U1T1S1R1Q1P1O1x5U5U5U5U5U5U5U5U5U5U5U5U5U5U5U5U5U5U5N1M1L1s1r1Z2K1J132D2I1      ",
"        H1G1F1U1T1E1D1C1B1A1;1:19181x5U5U5U5U5U5U5U5U5U5U5U5U5U5U571615132P241c1O3r131m221      ",
"          1101z0E1D1C1  y0x0w0      :19181x5U5U5U5U5U5U5U5U5U5U5U5v0u0t0s0r0M1L1q0p0a2o0        ",
"            n0m0l0C1B1      k0j0          :19181x5U5U5U5U5U5U5U5y5i0h0u0g0g051f0e0d0c1          ",
"              c0b0a0y0x0                        :191Z0x5U5U5U5U5Y0X0W0h0u0u0q1V0U0M1            ",
"                  T0S0w0                              :191R0x5Q0P0O0X0W0N0h0u0g0M0              ",
"                    L0K0J0                                  I0H0G0F0O0E0X0W0h0u0                ",
"                                                            D0C0B0A0;0P0O0X0W0                  ",
"                                                        :09080D0D0B0H0G0F0O0                    ",
"                                                      70605090  40D0C0B0                        ",
"                                                  302010      :09040                            ",
"                                                          0070                                  "};
