/* XPM */
static char *image[] = {
"48 48 744 2",
"   c None",
"00 c #4b4d49",
"10 c #545552",
"20 c #575956",
"30 c #5c5e5a",
"40 c #595a56",
"50 c #656562",
"60 c #6c6d69",
"70 c #5f615e",
"80 c #585a57",
"90 c #555652",
":0 c #50524f",
";0 c #52524f",
"A0 c #585955",
"B0 c #7a7977",
"C0 c #bbb9b8",
"D0 c #d2d1d0",
"E0 c #e4e1e1",
"F0 c #e5e1e1",
"G0 c #e3dfe0",
"H0 c #dddada",
"I0 c #c7c4c4",
"J0 c #aaaaa8",
"K0 c #8a8987",
"L0 c #676865",
"M0 c #565754",
"N0 c #474845",
"O0 c #535351",
"P0 c #5a5b57",
"Q0 c #838280",
"R0 c #b0aeae",
"S0 c #b3afaf",
"T0 c #c0bbbb",
"U0 c #cbc7c7",
"V0 c #d7d2d3",
"W0 c #dfdada",
"X0 c #e3ddde",
"Y0 c #d5d1d1",
"Z0 c #c8c4c4",
"a0 c #b8b3b3",
"b0 c #a9a5a4",
"c0 c #a4a0a0",
"d0 c #9f9e9d",
"e0 c #6e6e6b",
"f0 c #4b4c48",
"g0 c #4a4c49",
"h0 c #595a57",
"i0 c #898686",
"j0 c #a19d9e",
"k0 c #938f8f",
"l0 c #969292",
"m0 c #aaa6a6",
"n0 c #c1bcbd",
"o0 c #d1cccc",
"p0 c #ddd9d9",
"q0 c #e5e0e1",
"r0 c #e8e3e4",
"s0 c #e9e4e4",
"t0 c #e4dfdf",
"u0 c #dcd7d8",
"v0 c #beb9b9",
"w0 c #a8a4a4",
"x0 c #928f8e",
"y0 c #858382",
"z0 c #928f8d",
"01 c #a19f9d",
"11 c #747471",
"21 c #555653",
"31 c #666464",
"41 c #aba3a7",
"51 c #90878d",
"61 c #877f82",
"71 c #8d8788",
"81 c #9e9899",
"91 c #b1adad",
":1 c #c7c2c3",
";1 c #d8d3d3",
"A1 c #ebe6e7",
"B1 c #eee9ea",
"C1 c #eeeaea",
"D1 c #eae5e5",
"E1 c #d4cfcf",
"F1 c #c4bfbe",
"G1 c #afabaa",
"H1 c #9a9594",
"I1 c #898684",
"J1 c #878280",
"K1 c #888482",
"L1 c #9f9b99",
"M1 c #989594",
"N1 c #565854",
"O1 c #454745",
"P1 c #cb0000",
"Q1 c #ca0000",
"R1 c #50504d",
"S1 c #6a6868",
"T1 c #b5abb1",
"U1 c #9d9098",
"V1 c #92878d",
"W1 c #958e91",
"X1 c #a49fa0",
"Y1 c #b8b2b3",
"Z1 c #ccc7c8",
"a1 c #e9e4e5",
"b1 c #f3eeef",
"c1 c #c8c3c3",
"d1 c #b4afaf",
"e1 c #a19c9c",
"f1 c #94908e",
"g1 c #8f8c8a",
"h1 c #95908e",
"i1 c #9c9795",
"j1 c #a8a3a1",
"k1 c #a3a09d",
"l1 c #575955",
"m1 c #3f413d",
"n1 c #61625e",
"o1 c #b3a8af",
"p1 c #a99ba5",
"q1 c #a698a1",
"r1 c #9e9198",
"s1 c #988e92",
"t1 c #9a9396",
"u1 c #aaa4a5",
"v1 c #bcb7b8",
"w1 c #d1cccd",
"x1 c #ede8e9",
"y1 c #f4efef",
"z1 c #f7f3f4",
"02 c #ece8e8",
"12 c #e0dcdc",
"22 c #cecaca",
"32 c #b9b4b4",
"42 c #a6a3a2",
"52 c #9b9796",
"62 c #9c9895",
"72 c #a09c9a",
"82 c #a7a29f",
"92 c #a8a3a0",
":2 c #a9a5a2",
";2 c #92908f",
"A2 c #595c57",
"B2 c #2d568f",
"C2 c #5c5d5b",
"D2 c #9d9599",
"E2 c #ac9ba7",
"F2 c #b1a1ac",
"G2 c #b2a2ac",
"H2 c #aa9ca4",
"I2 c #a2989d",
"J2 c #a49b9f",
"K2 c #b0a9aa",
"L2 c #d6d1d2",
"M2 c #f8f4f4",
"N2 c #faf6f7",
"O2 c #faf6f6",
"P2 c #f7f3f3",
"Q2 c #f0ecec",
"R2 c #e3dfdf",
"S2 c #d4d0cf",
"T2 c #afaaa9",
"U2 c #a39f9e",
"V2 c #a6a19e",
"W2 c #aea9a7",
"X2 c #b5b0ad",
"Y2 c #b7b1af",
"Z2 c #aca7a3",
"a2 c #a5a09d",
"b2 c #6e6e6c",
"c2 c #50514e",
"d2 c #2c5489",
"e2 c #cc0000",
"f2 c #c90000",
"g2 c #686765",
"h2 c #ad9fa9",
"i2 c #b19fab",
"j2 c #bcabb6",
"k2 c #b4a6af",
"l2 c #aca1a7",
"m2 c #aba2a6",
"n2 c #b4adaf",
"o2 c #c5bfc1",
"p2 c #dad5d5",
"q2 c #f3eff0",
"r2 c #f9f6f7",
"s2 c #fdf9fa",
"t2 c #f9f5f6",
"u2 c #e8e4e4",
"v2 c #d7d3d2",
"w2 c #c6c2c2",
"x2 c #b5b1b0",
"y2 c #ada8a6",
"z2 c #afaba8",
"03 c #b8b4b1",
"13 c #c0bab8",
"23 c #b7b1ae",
"33 c #a19c99",
"43 c #979492",
"53 c #5e605c",
"63 c #305d95",
"73 c #4f524e",
"83 c #807b7d",
"93 c #ab9ba5",
":3 c #baa8b5",
";3 c #c6b3c0",
"A3 c #c7b5c1",
"B3 c #c2b2bc",
"C3 c #b5a9b0",
"D3 c #b3a7ad",
"E3 c #bab2b5",
"F3 c #cac4c5",
"G3 c #dcd6d8",
"H3 c #f5f2f2",
"I3 c #fcf9f9",
"J3 c #fffcfc",
"K3 c #ebe7e7",
"L3 c #dbd7d7",
"M3 c #cac6c6",
"N3 c #bab6b4",
"O3 c #b6b2af",
"P3 c #bbb5b3",
"Q3 c #c5c0bd",
"R3 c #cbc5c3",
"S3 c #ccc6c3",
"T3 c #c0bbb8",
"U3 c #aba6a2",
"V3 c #9a9693",
"W3 c #646561",
"X3 c #305e97",
"Y3 c #3a6ba7",
"Z3 c #3a6aa6",
"a3 c #3b6aa7",
"b3 c #8e868a",
"c3 c #ad9ca7",
"d3 c #c2afbc",
"e3 c #d1bdcb",
"f3 c #d0beca",
"g3 c #bfb1b9",
"h3 c #baafb4",
"i3 c #beb6ba",
"j3 c #cdc6c8",
"k3 c #dfd9db",
"l3 c #ede9e9",
"m3 c #f8f4f5",
"n3 c #fefbfb",
"o3 c #fdfafb",
"p3 c #f6f3f3",
"q3 c #edeae9",
"r3 c #dedada",
"s3 c #cfcac9",
"t3 c #c1bdbc",
"u3 c #bdb9b7",
"v3 c #c4bfbd",
"w3 c #d4cfcc",
"x3 c #c9c3c0",
"y3 c #b3aeaa",
"z3 c #9b9895",
"04 c #6a6b69",
"14 c #346097",
"24 c #416fab",
"34 c #416faa",
"44 c #3e6aa4",
"54 c #3c669d",
"64 c #396196",
"74 c #62625f",
"84 c #90898d",
"94 c #b4a2af",
":4 c #c8b4c3",
";4 c #d7c3d1",
"A4 c #d9c5d2",
"B4 c #d1c1cb",
"C4 c #c6b8c1",
"D4 c #c0b5bb",
"E4 c #c3bbbe",
"F4 c #cfc8cb",
"G4 c #e1dcdd",
"H4 c #efebeb",
"I4 c #f9f6f6",
"J4 c #fffcfd",
"K4 c #fefcfc",
"L4 c #f8f5f6",
"M4 c #efeceb",
"N4 c #e2dddd",
"O4 c #d2cecd",
"P4 c #c7c3c1",
"Q4 c #c6c2c0",
"R4 c #cec9c6",
"S4 c #d7d2cf",
"T4 c #ded9d6",
"U4 c #dcd7d4",
"V4 c #d0cbc7",
"W4 c #b9b4b1",
"X4 c #a39d9c",
"Y4 c #6b6b68",
"Z4 c #3a659a",
"a4 c #4875ae",
"b4 c #4570a7",
"c4 c #426ca0",
"d4 c #3f6799",
"e4 c #60605d",
"f4 c #878283",
"g4 c #bbaab7",
"h4 c #d0bdca",
"i4 c #decbd8",
"j4 c #e1cedb",
"k4 c #dbcad5",
"l4 c #cec0c8",
"m4 c #c6bac0",
"n4 c #c7bdc1",
"o4 c #d2cbcd",
"p4 c #e3dddf",
"q4 c #f0eced",
"r4 c #fffdfe",
"s4 c #f9f7f7",
"t4 c #f1eeee",
"u4 c #e4e0e0",
"v4 c #d7d3d1",
"w4 c #cdc9c7",
"x4 c #d7d3d0",
"y4 c #e1dcd9",
"z4 c #e8e3e0",
"05 c #e5e0dc",
"15 c #d7d1ce",
"25 c #c1bbb8",
"35 c #aca8a6",
"45 c #686b67",
"55 c #426a9e",
"65 c #436ea3",
"75 c #4e79b2",
"85 c #4e7ab2",
"95 c #4c76ac",
":5 c #4971a5",
";5 c #456d9f",
"A5 c #3a5c85",
"B5 c #605d5d",
"C5 c #807c7d",
"D5 c #c4b2bd",
"E5 c #d5c0cf",
"F5 c #e7d4e1",
"G5 c #e2d1dc",
"H5 c #d5c5cf",
"I5 c #ccbfc6",
"J5 c #cac1c5",
"K5 c #d4cccf",
"L5 c #e4dedf",
"M5 c #f1eded",
"N5 c #fffeff",
"O5 c #fbf8f8",
"P5 c #f2efef",
"Q5 c #e7e4e3",
"R5 c #dad7d5",
"S5 c #d4d0ce",
"T5 c #dedad7",
"U5 c #e9e4e1",
"V5 c #eee9e6",
"W5 c #ebe5e2",
"X5 c #ddd8d5",
"Y5 c #c6c0bd",
"Z5 c #ada9a6",
"a5 c #6b6d69",
"b5 c #4870a3",
"c5 c #4973a9",
"d5 c #557fb5",
"e5 c #547db2",
"f5 c #4d73a4",
"g5 c #486b99",
"h5 c #494947",
"i5 c #787776",
"j5 c #c7b7c2",
"k5 c #d9c4d3",
"l5 c #ead5e4",
"m5 c #eddae7",
"n5 c #e9d7e4",
"o5 c #dccdd7",
"p5 c #d1c4cb",
"q5 c #cec4c8",
"r5 c #d5ced0",
"s5 c #e4dfe0",
"t5 c #fbf8f9",
"u5 c #fffefe",
"v5 c #fefdfd",
"w5 c #fcfafa",
"x5 c #e8e5e5",
"y5 c #dedad9",
"z5 c #d7d4d2",
"06 c #f0ebe9",
"16 c #f5f1ee",
"26 c #f1ece9",
"36 c #e3dedb",
"46 c #cdc7c4",
"56 c #a19e9c",
"66 c #6c6d6a",
"76 c #5078ab",
"86 c #5c85b9",
"96 c #557bab",
":6 c #5176a3",
";6 c #727470",
"A6 c #ccbcc7",
"B6 c #ddc9d7",
"C6 c #eed9e8",
"D6 c #f3e0ee",
"E6 c #eedce9",
"F6 c #e1d2dc",
"G6 c #d5c7d0",
"H6 c #d4c9ce",
"I6 c #dbd3d6",
"J6 c #e5dee1",
"K6 c #eae5e6",
"L6 c #f1edee",
"M6 c #f7f4f4",
"N6 c #faf8f7",
"O6 c #fbfafa",
"P6 c #faf7f7",
"Q6 c #f3f1f0",
"R6 c #f0edec",
"S6 c #e9e6e5",
"T6 c #e3e0dd",
"U6 c #ece8e5",
"V6 c #f4f0ec",
"W6 c #e6e1dd",
"X6 c #d2cdca",
"Y6 c #93938e",
"Z6 c #666964",
"a6 c #4f73a0",
"b6 c #5880b2",
"c6 c #628abc",
"d6 c #6088b9",
"e6 c #5c82b1",
"f6 c #597dab",
"g6 c #53749e",
"h6 c #747672",
"i6 c #c8b8c3",
"j6 c #dfcad9",
"k6 c #f1dceb",
"l6 c #f8e4f2",
"m6 c #f4e1ee",
"n6 c #eedfe9",
"o6 c #eddfe9",
"p6 c #e4dae0",
"q6 c #e0d9db",
"r6 c #e6e1e1",
"s6 c #f3efef",
"t6 c #fcfbfa",
"u6 c #fdfbfa",
"v6 c #f7f5f3",
"w6 c #f9f5f2",
"x6 c #fdf8f6",
"y6 c #f7f3f0",
"z6 c #eae4e1",
"07 c #d6d1ce",
"17 c #858582",
"27 c #5c82b0",
"37 c #6188b9",
"47 c #698ec0",
"57 c #698fc0",
"67 c #6286b4",
"77 c #5f81ad",
"87 c #547098",
"97 c #777875",
":7 c #bbafb7",
";7 c #e2cddb",
"A7 c #f4dfee",
"B7 c #fcedf8",
"C7 c #fffafe",
"D7 c #e5dbe1",
"E7 c #cfc8c9",
"F7 c #d7d0d1",
"G7 c #ddd8d8",
"H7 c #e5e0e0",
"I7 c #ede9e8",
"J7 c #fffdfc",
"K7 c #faf6f3",
"L7 c #ece7e4",
"M7 c #d9d5d2",
"N7 c #787b77",
"O7 c #5f82ad",
"P7 c #668bbb",
"Q7 c #698fc1",
"R7 c #698bb6",
"S7 c #6586af",
"T7 c #577297",
"U7 c #777775",
"V7 c #ada4aa",
"W7 c #e4d0de",
"X7 c #f8e8f3",
"Y7 c #f1eef0",
"Z7 c #d1c9cd",
"a7 c #cec6c8",
"b7 c #d4cece",
"c7 c #dbd5d5",
"d7 c #e2dedd",
"e7 c #ebe7e6",
"f7 c #f2eeee",
"g7 c #f8f5f4",
"h7 c #fcfaf9",
"i7 c #fcf9f6",
"j7 c #ede8e5",
"k7 c #d0ccc9",
"l7 c #787b76",
"m7 c #6484ae",
"n7 c #6c90bd",
"o7 c #7095c3",
"p7 c #6f90ba",
"q7 c #6c8bb4",
"r7 c #737c8b",
"s7 c #9b9498",
"t7 c #eadae6",
"u7 c #eeebed",
"v7 c #bbb1b5",
"w7 c #c1b8bb",
"x7 c #c7bfc1",
"y7 c #ccc5c6",
"z7 c #d2cbcc",
"08 c #d8d2d2",
"18 c #e0dcdb",
"28 c #f6f4f3",
"38 c #f4f1f1",
"48 c #b8b6b4",
"58 c #7e807c",
"68 c #6b8bb3",
"78 c #7395c1",
"88 c #779ac7",
"98 c #7e9fca",
":8 c #7697bf",
";8 c #758daa",
"A8 c #8b8989",
"B8 c #faeef8",
"C8 c #b5a9af",
"D8 c #b9b0b3",
"E8 c #beb5b8",
"F8 c #c3bbbd",
"G8 c #c9c1c3",
"H8 c #d0c9ca",
"I8 c #d5cfcf",
"J8 c #dcd8d7",
"K8 c #f5f2f1",
"L8 c #fbf9f8",
"M8 c #a4a29e",
"N8 c #798b9e",
"O8 c #7b9cc6",
"P8 c #7d9fca",
"Q8 c #84a5cd",
"R8 c #84a4cd",
"S8 c #7f9ec3",
"T8 c #80827e",
"U8 c #d9cbd5",
"V8 c #b0a6aa",
"W8 c #b5acae",
"X8 c #bab1b4",
"Y8 c #c1b9ba",
"Z8 c #c6bfc0",
"a8 c #cbc5c5",
"b8 c #d3cdcd",
"c8 c #dad4d3",
"d8 c #e1dddc",
"e8 c #f3f1ef",
"f8 c #939590",
"g8 c #829cb9",
"h8 c #84a5ce",
"i8 c #8baad1",
"j8 c #868989",
"k8 c #aaa4a4",
"l8 c #a9a1a4",
"m8 c #aea7a8",
"n8 c #b6afb0",
"o8 c #bcb6b7",
"p8 c #c2bcbd",
"q8 c #c8c2c2",
"r8 c #cfc9c9",
"s8 c #d6d1d1",
"t8 c #ddd9d8",
"u8 c #e5e1df",
"v8 c #faf8f6",
"w8 c #ffffff",
"x8 c #fffefd",
"y8 c #fffefc",
"z8 c #fffdfb",
"09 c #fefcfa",
"19 c #828481",
"29 c #8ba9ce",
"39 c #8aaad1",
"49 c #92b0d5",
"59 c #8c9297",
"69 c #9a9897",
"79 c #a6a0a0",
"89 c #a9a3a4",
"99 c #b1abab",
":9 c #bab4b4",
";9 c #c0baba",
"A9 c #c7c2c2",
"B9 c #cdc8c7",
"C9 c #d4cfce",
"D9 c #e9e5e3",
"E9 c #f8f5f3",
"F9 c #fffffe",
"G9 c #fffdfd",
"H9 c #fefcfb",
"I9 c #fdfbf9",
"J9 c #fcfaf8",
"K9 c #fbf9f7",
"L9 c #fbf7f6",
"M9 c #faf7f5",
"N9 c #faf6f4",
"O9 c #fbf6f4",
"P9 c #ebe8e5",
"Q9 c #878b89",
"R9 c #92b1d5",
"S9 c #97b5d9",
"T9 c #98b5d9",
"U9 c #8e9cab",
"V9 c #8f908c",
"W9 c #a6a2a2",
"X9 c #aaa6a5",
"Y9 c #b1acab",
"Z9 c #bab5b4",
"a9 c #c0bcbb",
"b9 c #d6d1cf",
"c9 c #dbd7d5",
"d9 c #dfdbd9",
"e9 c #e5e1e0",
"f9 c #f0edeb",
"g9 c #f3f0ef",
"h9 c #f2efee",
"i9 c #f2f0ee",
"j9 c #f3efee",
"k9 c #f3efed",
"l9 c #f4f0ee",
"m9 c #cac8c5",
"n9 c #8b8f8e",
"o9 c #9bb2cb",
"p9 c #888a87",
"q9 c #aba7a5",
"r9 c #aba6a5",
"s9 c #b5b0af",
"t9 c #beb9b7",
"u9 c #c7c2c0",
"v9 c #cfcbc9",
"w9 c #d8d4d2",
"x9 c #e0dcda",
"y9 c #f0eceb",
"z9 c #f9f6f4",
"0: c #f6f3f2",
"1: c #e9e5e4",
"2: c #eeebe8",
"3: c #eeeae9",
"4: c #efebe9",
"5: c #efebe8",
"6: c #f0ece9",
"7: c #929491",
"8: c #888988",
"9: c #9b9a97",
":: c #b0abaa",
";: c #b6b2b0",
"A: c #c1bcba",
"B: c #cac6c4",
"C: c #d3cfcd",
"D: c #ddd8d7",
"E: c #eeeae8",
"F: c #f4f1ef",
"G: c #f6f3f1",
"H: c #f3f0ee",
"I: c #ece9e7",
"J: c #eae7e4",
"K: c #eae7e5",
"L: c #ebe7e5",
"M: c #ece9e6",
"N: c #afb0ac",
"O: c #8f928d",
"P: c #888183",
"Q: c #969593",
"R: c #b1adaa",
"S: c #b4b0ae",
"T: c #c1bdba",
"U: c #c9c4c2",
"V: c #d3d0cd",
"W: c #dcd8d6",
"X: c #e5e1de",
"Y: c #eae6e4",
"Z: c #edeae8",
"a: c #f1edeb",
"b: c #efece9",
"c: c #ede9e7",
"d: c #e8e5e3",
"e: c #e7e4e2",
"f: c #e9e5e2",
"g: c #b0b1ad",
"h: c #91948d",
"i: c #949591",
"j: c #aba7a6",
"k: c #b3afad",
"l: c #bbb7b5",
"m: c #c8c4c1",
"n: c #d0ccca",
"o: c #d8d3d1",
"p: c #eae6e3",
"q: c #e9e6e3",
"r: c #e8e4e2",
"s: c #e7e4e1",
"t: c #e7e2e0",
"u: c #e6e2e0",
"v: c #e7e3e1",
"w: c #e1dddb",
"x: c #a9a9a6",
"y: c #90938e",
"z: c #91938e",
"0; c #91938f",
"1; c #999b96",
"2; c #bab8b5",
"3; c #d1cdca",
"4; c #d6d2d0",
"5; c #dcd7d5",
"6; c #dfdbd8",
"7; c #e2dedb",
"8; c #e4dfdd",
"9; c #e6e1df",
":; c #e4e0dd",
";; c #e6e2df",
"A; c #e5e2e0",
"B; c #e7e3e0",
"C; c #dad8d4",
"D; c #adaeaa",
"E; c #929590",
"F; c #91928d",
"G; c #949691",
"H; c #969893",
"I; c #adaca9",
"J; c #c1bfbc",
"K; c #cecbc7",
"L; c #dfdad8",
"M; c #e0dcd9",
"N; c #e3dfdc",
"O; c #d8d4d3",
"P; c #ceccc9",
"Q; c #c0beba",
"R; c #a0a29e",
"S; c #91958f",
"T; c #929690",
"U; c #929691",
"V; c #959994",
"W; c #969a95",
"X; c #939791",
"Y; c #949792",
"Z; c #929791",
"a; c #939691",
"                                                                                                ",
"                                                                                                ",
"                                                                                                ",
"                                                                                                ",
"                                                                                                ",
"                                                                                                ",
"                                a;Z;Y;X;W;V;a;U;a;T;                                            ",
"                          S;a;R;Q;P;O;N;M;L;O;K;J;I;H;G;                                        ",
"                      F;E;D;C;B;A;;;:;9;8;:;7;6;5;4;3;2;1;0;0;z:y:                              ",
"                    U;x:w:v:u:t:B;v:s:r:q:p:p:v:N;L;o:n:m:l:k:j:i:                              ",
"                  h:g:p:r:f:r:r:e:r:d:q:c:b:a:Z:Y:X:W:V:U:T:S:R:Q:P:                            ",
"                O:N:M:L:Y:K:J:q:d:r:e:e:I:H:G:F:E:u:D:C:B:A:;:::9:8:                            ",
"                7:6:5:4:3:4:2:I:I:K:d:e:1:0:z9y9r:x9w9v9u9t9s9r9q9p9o9                          ",
"              n9m9l9k9H:j9F:F:F:F:H:i9h9g9f9e9d9c9b9v9U:a9Z9Y9X9W9V9U9T9S9                      ",
"            R9Q9P9O9N9M9L9K9J9J9I9H9G9F9F9E9D9d9w9C9B9A9;9:9998979695949494949                  ",
"          392919I909z8y8x8x8F9F9w8w8w8w8x8v8f9u8t8s8r8q8p8o8n8m8l8k8j8i8i8i8i8i8                ",
"        h8h8g8f8w8w8w8w8w8w8w8w8w8w8w8w8x8K9e8K:d8c8b8a8Z8Y8X8W8V8U8T8S8R8h8h8h8h8Q8            ",
"      P8P8O8N8M8w8w8w8w8w8w8w8w8w8w8w8w8x8L8K83:e9J8I8H8G8F8E8D8C8B8A8;8:8O8P8P8P8P898          ",
"      887868584838w8w8w8w8w8w8w8w8w8w8w8x8L828y91:1808z7y7x7w7v7u7t7s7r7q7p77888888888          ",
"    o7n7m7  l7k7j7i7w8w8w8w8w8w8w8w8w8w8x8h7g7f7e7d7c7b7a7G8Z7Y7X7W7V7U7T7S7R7n7o7o7o7o7        ",
"  Q7P7O7    N7M7L7K7z8w8w8w8w8w8w8w8w8w8J7h7g7h9I7H7G7F7E7D7C7B7A7;7:797  877767P757575747      ",
"  3727      1707z6y6x6w6v6u6h7t6w8w8w8w8J7h7g7s6I7r6q6p6o6n6m6l6k6j6i6h6    g6f6e6d6c6c6c6      ",
"  b6a6    Z6Y6X6W6V6w6l9U6w:T6S6R6Q6P6O6h7N6M6L6K6J6I6H6G6F6E6D6C6B6A6;6      :696b686868686    ",
"  76      66564636261606;;c9z5y5x538w5v5v5v5u5t5f7s5r5q5p5o5n5m5l5k5j5i5h5    g5f576e5d5d5d5    ",
"c5b5      a5Z5Y5X5W5V5U5T5S5S5R5Q5P5O5u5w8w8N5t5M5L5K5J5I5H5G5F5W7E5D5C5B5    A5;5:59585858575  ",
"6555      4535251505z4y4x4w4w4v4u4t4s4G9w8w8r4P6q4p4o4n4m4l4k4j4i4h4g4f4e4      d4c4b4a4a4a4a4  ",
"  Z4      Y4X4W4V4U4T4S4R4Q4P4O4N4M4L4K4w8N5J4I4H4G4F4E4D4C4B4A4;4:4948474      64544434242424  ",
"  14      04z3y3x3w3S4R4v3u3t3s3r3q3p3o3u5r4n3m3l3k3j3i3h3g3i6f3e3d3c3b3e4              a3Z3Y3  ",
"  X3      W3V3U3T3S3R3Q3P3O3N3M3L3K338O5K4J3I3H3K3G3F3E3D3C3B3A3;3:3938373                      ",
"  63      53433323132503z2y2x2w2v2u2P5t2s2s2r2q2u2p2o2n2m2l2k2j2j2i2h2g2      f2e2e2e2e2e2e2    ",
"    d2    c2b2a2Z2Y2X2W2V2U2T2t3S2R2Q2P2O2N2M2Q2H7L2p8K2J2I2H2G2F2E2D2C2      e2e2e2e2e2e2e2e2e2",
"    B2      A2;2:292827262524232221202s6P2z1y1x1N4w1v1u1t1s1r1q1p1o1n1m1      e2e2e2e2e2e2e2e2e2",
"              l1k1j1i1h1g1f1e1d1c1L3u2H4b1s6Q2a1G7Z1Y1X1W1b3V1U1T1S1R1          Q1e2e2e2e2e2e2P1",
"              O1N1M1L1K1J1I1H1G1F1E1N4D1C1B1A1R2;1:191817161514131c2              e2e2e2e2e2e2e2",
"                  211101z0y0x0w0v022u0t0s0r0q0p0o0n0m0l0k0j0i0h0g0                    e2e2e2e2  ",
"                    f0N1e0d0c0b0a0Z0Y0u0N4X0W0V0U0T0S0R0Q0P0O0                          e2e2e2  ",
"                        N0M0L0K0J0I0H0R2G0F0E0D0C0d0B0A0;0                                  e2  ",
"                              :09080l17060504030201000                                          ",
"                                                                                                ",
"                                                                                                ",
"                                                                                                ",
"                                                                                                ",
"                                                                                                ",
"                                                                                                ",
"                                                                                                ",
"                                                                                                ",
"                                                                                                ",
"                                                                                                "};
