/* XPM */
static char *image[] = {
"48 48 43 1",
"  c None",
"0 c #aa9a8b",
"1 c #c9bdb0",
"2 c #ab9c8d",
"3 c #dcd1c8",
"4 c #a59484",
"5 c #cec1b6",
"6 c #a39384",
"7 c #dacec4",
"8 c #ae9e8f",
"9 c #c1b0a0",
": c #a19182",
"; c #d9cfc3",
"A c #a29283",
"B c #c5b7aa",
"C c #a49484",
"D c #c7bbae",
"E c #dad0c5",
"F c #ded4ca",
"G c #cec3b7",
"H c #a49384",
"I c #c0b09e",
"J c #ac9c8c",
"K c #a39283",
"L c #c5b5a3",
"M c #a29382",
"N c #a19081",
"O c #a28f80",
"P c #c0af9e",
"Q c #c6b5a5",
"R c #a29081",
"S c #baa998",
"T c #a29282",
"U c #a19181",
"V c #bfae9d",
"W c #c9b8a7",
"X c #c6b5a4",
"Y c #b8a897",
"Z c #a29181",
"a c #a18f7f",
"b c #a08f7f",
"c c #a19080",
"d c #a39282",
"                                                ",
"                                                ",
"    dcbbbbbbbbbbba                              ",
"   ZYXWWWWWWWWWWWVU                             ",
"  TSWWWWWWWWWWWWWWVU                            ",
"  RQWWWWWWWWWWWWWWWPU                           ",
"  bWWWWWWWWWWWWWWWWWVObbbbbbbbbbbbbbbbbbbbNM    ",
"  bWWWWWWWWWWWWWWWWWWWWWWWWWWWWWWWWWWWWWWWQSZ   ",
"  bWWWWWWWWWWWWWWWWWWWWWWWWWWWWWWWWWWWWWWWWWYd  ",
"  bWWWWWWWWWWWWWWWWWWWWWWWWWWWWWWWWWWWWWWWWWLN  ",
"  bWWWWWWWWWWWWWWWWWWWWWWWWWWWWWWWWWWWWWWWWWWb  ",
"  bWWWWWWWWWWWWWWWWWWWVZbbbbbbbbbbbbbbbbbbKJIb  ",
"  bWWWWWWWWWWWWWWWWWWVHGFFFFFFFFFFFFFFFFFFEDCb  ",
"  bWWWWWWWWWWWWWWWWWVHGFFFFFFFFFFFFFFFFFFFFFBA  ",
"  bWWWWWWWWWWWWWWWWVHGFFFFFFFFFFFFFFFFFFFFFF;:  ",
"  b98dbbbbbbbbbbbbbZGFFFFFFFFFFFFFFFFFFFFFFFFb  ",
"  bCB7FFFFFFFFFFFFFFFFFFFFFFFFFFFFFFFFFFFFFFFb  ",
"  6DFFFFFFFFFFFFFFFFFFFFFFFFFFFFFFFFFFFFFFFFFb  ",
"  ZEFFFFFFFFFFFFFFFFFFFFFFFFFFFFFFFFFFFFFFFFFb  ",
"  bFFFFFFFFFFFFFFFFFFFFFFFFFFFFFFFFFFFFFFFFFFb  ",
"  bFFFFFFFFFFFFFFFFFFFFFFFFFFFFFFFFFFFFFFFFFFb  ",
"  bFFFFFFFFFFFFFFFFFFFFFFFFFFFFFFFFFFFFFFFFFFb  ",
"  bFFFFFFFFFFFFFFFFFFFFFFFFFFFFFFFFFFFFFFFFFFb  ",
"  bFFFFFFFFFFFFFFFFFFFFFFFFFFFFFFFFFFFFFFFFFFb  ",
"  bFFFFFFFFFFFFFFFFFFFFFFFFFFFFFFFFFFFFFFFFFFb  ",
"  bFFFFFFFFFFFFFFFFFFFFFFFFFFFFFFFFFFFFFFFFFFb  ",
"  bFFFFFFFFFFFFFFFFFFFFFFFFFFFFFFFFFFFFFFFFFFb  ",
"  bFFFFFFFFFFFFFFFFFFFFFFFFFFFFFFFFFFFFFFFFFFb  ",
"  bFFFFFFFFFFFFFFFFFFFFFFFFFFFFFFFFFFFFFFFFFFb  ",
"  bFFFFFFFFFFFFFFFFFFFFFFFFFFFFFFFFFFFFFFFFFFb  ",
"  bFFFFFFFFFFFFFFFFFFFFFFFFFFFFFFFFFFFFFFFFFFb  ",
"  bFFFFFFFFFFFFFFFFFFFFFFFFFFFFFFFFFFFFFFFFFFb  ",
"  bFFFFFFFFFFFFFFFFFFFFFFFFFFFFFFFFFFFFFFFFFFb  ",
"  bFFFFFFFFFFFFFFFFFFFFFFFFFFFFFFFFFFFFFFFFFFb  ",
"  bFFFFFFFFFFFFFFFFFFFFFFFFFFFFFFFFFFFFFFFFFFb  ",
"  bFFFFFFFFFFFFFFFFFFFFFFFFFFFFFFFFFFFFFFFFFFb  ",
"  bFFFFFFFFFFFFFFFFFFFFFFFFFFFFFFFFFFFFFFFFFFb  ",
"  bFFFFFFFFFFFFFFFFFFFFFFFFFFFFFFFFFFFFFFFFFFb  ",
"  bFFFFFFFFFFFFFFFFFFFFFFFFFFFFFFFFFFFFFFFFFFb  ",
"  bFFFFFFFFFFFFFFFFFFFFFFFFFFFFFFFFFFFFFFFFFFb  ",
"  bFFFFFFFFFFFFFFFFFFFFFFFFFFFFFFFFFFFFFFFFFFb  ",
"  bFFFFFFFFFFFFFFFFFFFFFFFFFFFFFFFFFFFFFFFFFE:  ",
"  bFFFFFFFFFFFFFFFFFFFFFFFFFFFFFFFFFFFFFFFFF54  ",
"  bFFFFFFFFFFFFFFFFFFFFFFFFFFFFFFFFFFFFFFFF32   ",
"  bFFFFFFFFFFFFFFFFFFFFFFFFFFFFFFFFFFFFFFE10K   ",
"  bbbbbbbbbbbbbbbbbbbbbbbbbbbbbbbbbbbbbbbUH     ",
"                                                ",
"                                                "};
